<svg width="32" height="32" xmlns="http://www.w3.org/2000/svg" xmlns:xlink="http://www.w3.org/1999/xlink"><defs><path id="prefix__a" d="M0 0h32v32H0z"/><path id="prefix__c" d="M0 0h18v18H0z"/></defs><g fill="none" fill-rule="evenodd"><mask id="prefix__b" fill="#fff"><use xlink:href="#prefix__a"/></mask><rect fill="#1890ff" mask="url(#prefix__b)" x="1" y="1" width="30" height="30" rx="8"/><path d="M23 1a8 8 0 018 8v14a8 8 0 01-8 8H9a8 8 0 01-8-8V9a8 8 0 018-8h14zm0 2H9a6 6 0 00-6 6v14a6 6 0 006 6h14a6 6 0 006-6V9a6 6 0 00-6-6z" fill="#FFF" fill-rule="nonzero" mask="url(#prefix__b)"/><path d="M23 1a8 8 0 018 8v14a8 8 0 01-8 8H9a8 8 0 01-8-8V9a8 8 0 018-8h14zm0 1H9a7 7 0 00-7 7v14a7 7 0 007 7h14a7 7 0 007-7V9a7 7 0 00-7-7z" fill="#262626" fill-rule="nonzero" mask="url(#prefix__b)"/><g mask="url(#prefix__b)"><g transform="translate(7 7)"><mask id="prefix__d" fill="#fff"><use xlink:href="#prefix__c"/></mask><path d="M10.8 3.038A2.363 2.363 0 0113.162 5.4v1.22L15.35 5.06a1.463 1.463 0 011.953.23l.087.11c.177.248.273.545.273.85v5.502a1.462 1.462 0 01-2.313 1.19l-2.188-1.562V12.6c0 1.255-.977 2.28-2.213 2.358l-.149.005H2.7A2.363 2.363 0 01.337 12.6V5.4A2.363 2.363 0 012.7 3.037zm0 1.124H2.7c-.683 0-1.238.555-1.238 1.238v7.2c0 .683.555 1.238 1.238 1.238h8.1c.683 0 1.237-.555 1.237-1.238v-2.315c0-.457.518-.723.89-.457l3.077 2.198a.337.337 0 00.534-.275V6.25a.338.338 0 00-.534-.275l-3.077 2.198a.563.563 0 01-.89-.458V5.4c0-.683-.554-1.238-1.237-1.238zM5.362 5.737a.563.563 0 010 1.125H3.263a.563.563 0 010-1.125h2.099z" fill="#FFF" fill-rule="nonzero" mask="url(#prefix__d)"/></g></g></g></svg>
